{
 "cells": [
  {
   "cell_type": "code",
   "execution_count": 129,
   "id": "9d470b45",
   "metadata": {},
   "outputs": [
    {
     "name": "stdout",
     "output_type": "stream",
     "text": [
      "The autoreload extension is already loaded. To reload it, use:\n",
      "  %reload_ext autoreload\n"
     ]
    }
   ],
   "source": [
    "%load_ext autoreload\n",
    "%autoreload 2\n",
    "\n",
    "!export TRITON_CACHE_DIR=/data/gpfs/projects/punim2662/.cache/triton\n",
    "!export XDG_CONFIG_HOME=/data/gpfs/projects/punim2662/.config\n",
    "!export VLLM_CACHE_DIR=/data/gpfs/projects/punim2662/.cache/vllm\n",
    "!export VLLM_CACHE_ROOT=/data/gpfs/projects/punim2662/.cache/vllm\n",
    "!export TORCH_HOME=/data/gpfs/projects/punim2662/.cache/torch/\n",
    "!export TORCHINDUCTOR_CACHE_DIR=/data/gpfs/projects/punim2662/.cache/torch/inductor\n",
    "!export CUDA_CACHE_PATH=/data/gpfs/projects/punim2662/.cache/nvidia/\n",
    "!export HF_HOME=/data/gpfs/projects/punim2662/.cache/huggingface\n",
    "\n",
    "!export HF_AUTH_TOKEN=\"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\""
   ]
  },
  {
   "cell_type": "markdown",
   "id": "df1893ef",
   "metadata": {},
   "source": [
    "### **Load the mmlu auxiliary split**\n"
   ]
  },
  {
   "cell_type": "code",
   "execution_count": 130,
   "id": "16b3388c",
   "metadata": {},
   "outputs": [],
   "source": [
    "from routing_dataset.dataset_paths import *\n",
    "import pickle\n",
    "from datasets import load_dataset, get_dataset_config_names, Dataset\n",
    "from routing_dataset.load_dataset import load_mmlu_pro_dataset\n",
    "from routing_dataset.load_dataset import load_gsm8k_split\n",
    "from routing_dataset.run_prompts import add_correct_labels"
   ]
  },
  {
   "cell_type": "code",
   "execution_count": 131,
   "id": "2d9298ea",
   "metadata": {},
   "outputs": [],
   "source": [
    "with open(GSM8K_TRAIN_QWEN8B_CORRECT_RESULTS_FILE, 'rb') as f:\n",
    "    gsm8k_train_results = pickle.load(f)\n",
    "with open(GSM8K_TEST_QWEN8B_CORRECT_RESULTS_FILE, 'rb') as f:\n",
    "    gsm8k_test_results = pickle.load(f)\n",
    "\n"
   ]
  },
  {
   "cell_type": "code",
   "execution_count": 132,
   "id": "1fccf7a1",
   "metadata": {},
   "outputs": [
    {
     "name": "stdout",
     "output_type": "stream",
     "text": [
      "accuracy of Qwen3-8B on GSM8K train set: 0.8648467817476247, total samples: 7473\n",
      "accuracy of Qwen3-8B on GSM8K test set: 0.9097801364670205, total samples: 1319\n"
     ]
    }
   ],
   "source": [
    "total_train_correct = 0\n",
    "for correct in gsm8k_train_results['correct_labels']:\n",
    "    if correct == 1:\n",
    "        total_train_correct += 1\n",
    "print(f'accuracy of Qwen3-8B on GSM8K train set: {total_train_correct/len(gsm8k_train_results[\"correct_labels\"])}, total samples: {len(gsm8k_train_results[\"correct_labels\"])}')\n",
    "\n",
    "total_test_correct = 0\n",
    "for correct in gsm8k_test_results['correct_labels']:\n",
    "    if correct == 1:\n",
    "        total_test_correct += 1\n",
    "print(f'accuracy of Qwen3-8B on GSM8K test set: {total_test_correct/len(gsm8k_test_results[\"correct_labels\"])}, total samples: {len(gsm8k_test_results[\"correct_labels\"])}')"
   ]
  },
  {
   "cell_type": "code",
   "execution_count": 133,
   "id": "fcbdb4bc",
   "metadata": {},
   "outputs": [],
   "source": [
    "with open(MMLU_TEST_QWEN8B_CORRECT_RESULTS_FILE, 'rb') as f:\n",
    "    mmlu_test_results = pickle.load(f)\n",
    "with open(MMLU_VALIDATION_QWEN8B_CORRECT_RESULTS_FILE, 'rb') as f:\n",
    "    mmlu_val_results = pickle.load(f)\n",
    "with open(MMLU_DEV_QWEN8B_CORRECT_RESULTS_FILE, 'rb') as f:\n",
    "    mmlu_dev_results = pickle.load(f)\n",
    "with open(MMLU_AUXILIARY_QWEN8B_CORRECT_RESULTS_FILE, 'rb') as f:\n",
    "    mmlu_auxiliary_results = pickle.load(f)"
   ]
  },
  {
   "cell_type": "code",
   "execution_count": 134,
   "id": "d4410eb7",
   "metadata": {},
   "outputs": [
    {
     "name": "stdout",
     "output_type": "stream",
     "text": [
      "accuracy of Qwen3-8B on MMLU test set: 0.7250391682096567, total samples: 14042\n",
      "accuracy of Qwen3-8B on MMLU validation set: 0.7250163291966035, total samples: 1531\n",
      "accuracy of Qwen3-8B on MMLU dev set: 0.7543859649122807, total samples: 285\n",
      "accuracy of Qwen3-8B on MMLU auxiliary set: 0.8755533743314436, total samples: 99842\n"
     ]
    }
   ],
   "source": [
    "total_test_correct = 0\n",
    "for correct in mmlu_test_results['correct_labels']:\n",
    "    if correct == 1:\n",
    "        total_test_correct += 1\n",
    "print(f'accuracy of Qwen3-8B on MMLU test set: {total_test_correct/len(mmlu_test_results[\"correct_labels\"])}, total samples: {len(mmlu_test_results[\"correct_labels\"])}')\n",
    "\n",
    "total_val_correct = 0\n",
    "for correct in mmlu_val_results['correct_labels']:\n",
    "    if correct == 1:\n",
    "        total_val_correct += 1\n",
    "print(f'accuracy of Qwen3-8B on MMLU validation set: {total_val_correct/len(mmlu_val_results[\"correct_labels\"])}, total samples: {len(mmlu_val_results[\"correct_labels\"])}')\n",
    "\n",
    "total_dev_correct = 0\n",
    "for correct in mmlu_dev_results['correct_labels']:\n",
    "    if correct == 1:\n",
    "        total_dev_correct += 1\n",
    "print(f'accuracy of Qwen3-8B on MMLU dev set: {total_dev_correct/len(mmlu_dev_results[\"correct_labels\"])}, total samples: {len(mmlu_dev_results[\"correct_labels\"])}')\n",
    "\n",
    "total_auxiliary_correct = 0\n",
    "for correct in mmlu_auxiliary_results['correct_labels']:\n",
    "    if correct == 1:\n",
    "        total_auxiliary_correct += 1\n",
    "print(f'accuracy of Qwen3-8B on MMLU auxiliary set: {total_auxiliary_correct/len(mmlu_auxiliary_results[\"correct_labels\"])}, total samples: {len(mmlu_auxiliary_results[\"correct_labels\"])}')"
   ]
  },
  {
   "cell_type": "code",
   "execution_count": 135,
   "id": "5683f9ba",
   "metadata": {},
   "outputs": [
    {
     "name": "stdout",
     "output_type": "stream",
     "text": [
      "accuracy of Qwen3-8B on MMLU pro test set: 0.4699966755319149, total samples: 12032\n",
      "accuracy of Qwen3-8B on MMLU pro validation set: 0.5428571428571428, total samples: 70\n"
     ]
    }
   ],
   "source": [
    "# MMLU Pro\n",
    "with open(MMLU_PRO_TEST_QWEN8B_CORRECT_RESULTS_FILE, 'rb') as f:\n",
    "    mmlu_pro_results = pickle.load(f)\n",
    "\n",
    "total_test_correct = 0\n",
    "for correct in mmlu_pro_results['correct_labels']:\n",
    "    if correct == 1:\n",
    "        total_test_correct += 1\n",
    "print(f'accuracy of Qwen3-8B on MMLU pro test set: {total_test_correct/len(mmlu_pro_results[\"correct_labels\"])}, total samples: {len(mmlu_pro_results[\"correct_labels\"])}')\n",
    "\n",
    "with open(MMLU_PRO_VALIDATION_QWEN8B_CORRECT_RESULTS_FILE, 'rb') as f:\n",
    "    mmlu_pro_val_results = pickle.load(f)\n",
    "\n",
    "total_val_correct = 0\n",
    "for correct in mmlu_pro_val_results['correct_labels']:\n",
    "    if correct == 1:\n",
    "        total_val_correct += 1\n",
    "print(f'accuracy of Qwen3-8B on MMLU pro validation set: {total_val_correct/len(mmlu_pro_val_results[\"correct_labels\"])}, total samples: {len(mmlu_pro_val_results[\"correct_labels\"])}')"
   ]
  },
  {
   "cell_type": "code",
   "execution_count": 136,
   "id": "440190a5",
   "metadata": {},
   "outputs": [
    {
     "name": "stdout",
     "output_type": "stream",
     "text": [
      "percentage of None in Qwen3-8B on MMLU pro test set: 0.0\n"
     ]
    }
   ],
   "source": [
    "response_len = 0\n",
    "total_none = 0\n",
    "for i, correct in enumerate(gsm8k_train_results['correct_labels']):\n",
    "    if correct not in [0, 1]:\n",
    "        total_none += 1\n",
    "print(f'percentage of None in Qwen3-8B on MMLU pro test set: {total_none/len(mmlu_pro_results[\"extracted_answers\"])}')"
   ]
  },
  {
   "cell_type": "code",
   "execution_count": 137,
   "id": "5cfb2577",
   "metadata": {},
   "outputs": [],
   "source": [
    "with open(MMLU_PRO_COMBINED_FILE, 'rb') as f:\n",
    "    mmlu_pro_combined = pickle.load(f)\n",
    "with open(MMLU_COMBINED_FILE, 'rb') as f:\n",
    "    mmlu_combined = pickle.load(f)\n",
    "with open(GSM8K_COMBINED_FILE, 'rb') as f:\n",
    "    gsm8k_combined = pickle.load(f)\n"
   ]
  },
  {
   "cell_type": "code",
   "execution_count": 138,
   "id": "e4d95f29",
   "metadata": {},
   "outputs": [
    {
     "name": "stdout",
     "output_type": "stream",
     "text": [
      "dict_keys(['prompts', 'ground_truths', 'correct_labels', 'split_source'])\n",
      "accuracy of Qwen3-8B on MMLU pro combined set: 0.4704181127086432, total samples: 12102\n",
      "accuracy of Qwen3-8B on MMLU combined set: 0.7255643839071761, total samples: 15858\n",
      "accuracy of Qwen3-8B on GSM8K combined set: 0.8715878070973613, total samples: 8792\n"
     ]
    }
   ],
   "source": [
    "total_correct = 0\n",
    "print(mmlu_pro_combined.keys())\n",
    "for correct in mmlu_pro_combined['correct_labels']:\n",
    "    if correct == 1:\n",
    "        total_correct += 1\n",
    "print(f'accuracy of Qwen3-8B on MMLU pro combined set: {total_correct/len(mmlu_pro_combined[\"correct_labels\"])}, total samples: {len(mmlu_pro_combined[\"correct_labels\"])}')\n",
    "\n",
    "total_correct = 0\n",
    "for correct in mmlu_combined['correct_labels']:\n",
    "    if correct == 1:\n",
    "        total_correct += 1\n",
    "print(f'accuracy of Qwen3-8B on MMLU combined set: {total_correct/len(mmlu_combined[\"correct_labels\"])}, total samples: {len(mmlu_combined[\"correct_labels\"])}')\n",
    "\n",
    "total_correct = 0\n",
    "for correct in gsm8k_combined['correct_labels']:\n",
    "    if correct == 1:\n",
    "        total_correct += 1\n",
    "print(f'accuracy of Qwen3-8B on GSM8K combined set: {total_correct/len(gsm8k_combined[\"correct_labels\"])}, total samples: {len(gsm8k_combined[\"correct_labels\"])}')\n",
    "\n"
   ]
  },
  {
   "cell_type": "code",
   "execution_count": 139,
   "id": "c2fa48fb",
   "metadata": {},
   "outputs": [],
   "source": [
    "with open(FINAL_TRAIN_FILE, 'rb') as f:\n",
    "    final_train = pickle.load(f)\n",
    "with open(FINAL_VAL_FILE, 'rb') as f:\n",
    "    final_val = pickle.load(f)\n",
    "with open(FINAL_TEST_FILE, 'rb') as f:\n",
    "    final_test = pickle.load(f)\n"
   ]
  },
  {
   "cell_type": "code",
   "execution_count": 141,
   "id": "12432cfb",
   "metadata": {},
   "outputs": [
    {
     "name": "stdout",
     "output_type": "stream",
     "text": [
      "29401\n",
      "dict_keys(['prompts', 'ground_truths', 'correct_labels', 'dataset_source'])\n",
      "dict_keys(['prompts', 'ground_truths', 'correct_labels', 'dataset_source'])\n"
     ]
    }
   ],
   "source": [
    "print(len(final_train['correct_labels']))\n",
    "print(final_val.keys())\n",
    "print(final_test.keys())"
   ]
  }
 ],
 "metadata": {
  "kernelspec": {
   "display_name": "Python 3 (ipykernel)",
   "language": "python",
   "name": "python3"
  },
  "language_info": {
   "codemirror_mode": {
    "name": "ipython",
    "version": 3
   },
   "file_extension": ".py",
   "mimetype": "text/x-python",
   "name": "python",
   "nbconvert_exporter": "python",
   "pygments_lexer": "ipython3",
   "version": "3.9.21"
  }
 },
 "nbformat": 4,
 "nbformat_minor": 5
}
